HIERARCHY
ROOT Hips
{
  OFFSET 25.7531 95.2748 -35.7159
  CHANNELS 6 Xposition Yposition Zposition Zrotation Xrotation Yrotation
  JOINT Spine
  {
    OFFSET 0 11.8905 0
    CHANNELS 3 Zrotation Xrotation Yrotation
    JOINT Spine1
    {
      OFFSET 0 25.6574 0.12766
      CHANNELS 3 Zrotation Xrotation Yrotation
      JOINT HEad
      {
        OFFSET 0 8.73416 0.01134
        CHANNELS 3 Zrotation Xrotation Yrotation
        End Site
        {
          OFFSET -0.29 12.7742 2.51395
        }
      }
      JOINT LeftShoulder1
      {
        OFFSET 8.99 -0.36225 -0.22
        CHANNELS 3 Zrotation Xrotation Yrotation
        JOINT LeftArm
        {
          OFFSET 10.2827 -0.00338 0.32212
          CHANNELS 3 Zrotation Xrotation Yrotation
          JOINT LeftForeArm
          {
            OFFSET 32.7669 0.09914 -1.42434
            CHANNELS 3 Zrotation Xrotation Yrotation
            JOINT LeftHand
            {
              OFFSET 27.5643 0.08536 1.02216
              CHANNELS 3 Zrotation Xrotation Yrotation
              End Site
              {
                OFFSET 16.7443 -0.6 1.50291
              }
            }
          }
        }
      }
      JOINT RightShoulder
      {
        OFFSET -8.99 -0.36225 -0.22
        CHANNELS 3 Zrotation Xrotation Yrotation
        JOINT RightArm
        {
          OFFSET -10.2827 -0.00338 0.32212
          CHANNELS 3 Zrotation Xrotation Yrotation
          JOINT RightForeArm
          {
            OFFSET -32.8971 0.09914 -1.42434
            CHANNELS 3 Zrotation Xrotation Yrotation
            JOINT RightHand
            {
              OFFSET -27.4921 0.08536 1.02216
              CHANNELS 3 Zrotation Xrotation Yrotation
              End Site
              {
                OFFSET -16.6312 -0.6 1.50291
              }
            }
          }
        }
      }
    }
  }
  JOINT LeftUpLeg
  {
    OFFSET 8.9458 -8.66707 0.10165
    CHANNELS 3 Zrotation Xrotation Yrotation
    JOINT LeftLeg
    {
      OFFSET 0 -44.4227 1.3727
      CHANNELS 3 Zrotation Xrotation Yrotation
      JOINT LeftFoot
      {
        OFFSET -0.25355 -42.0924 -1.46059
        CHANNELS 3 Zrotation Xrotation Yrotation
        JOINT LeftToes
        {
          OFFSET -0.04 -4.41509 8.4991
          CHANNELS 3 Zrotation Xrotation Yrotation
          End Site
          {
            OFFSET 0.08 -0.04745 9.77979
          }
        }
      }
    }
  }
  JOINT RightUpLeg
  {
    OFFSET -8.9458 -8.66707 0.10165
    CHANNELS 3 Zrotation Xrotation Yrotation
    JOINT RightLeg
    {
      OFFSET 0 -44.4227 1.3727
      CHANNELS 3 Zrotation Xrotation Yrotation
      JOINT RightFoot
      {
        OFFSET 0.25355 -42.0924 -1.46059
        CHANNELS 3 Zrotation Xrotation Yrotation
        JOINT RightToes
        {
          OFFSET 0.04 -4.41509 8.4991
          CHANNELS 3 Zrotation Xrotation Yrotation
          End Site
          {
            OFFSET -0.08 -0.13745 9.77979
          }
        }
      }
    }
  }
}
MOTION
Frames:	13
Frame Time:	0.0166667
30.9102 91.9883 -14.2309 4.87955 -2.65903 121.991 5.27568 10.2579 -18.1302 0.455292 1.0125 1.74954 -22.1775 0.217114 60.2925 7.29609 -7.57874 4.77001 -46.8718 -71.4461 -51.4596 9.75721 48.5607 -101.009 -13.5722 19.8081 58.7015 14.3679 -33.6423 0.184742 64.041 32.9327 53.6919 0.770813 16.8526 94.7758 5.54675 17.6498 1.76232 44.0121 -25.3607 -22.13 -33.6458 14.3497 61.648 1.25286 2.8244 3.4126 -1.84569 10.107 -6.30551 -17.393 -16.5192 -2.41823 6.34494 52.1003 -12.5598 7.28403 2.57037 0.968666 2.93419 -4.64706 -14.2705 
30.3286 91.4929 -15.0799 5.07159 -2.89381 121.638 5.8805 11.0018 -18.9028 0.071841 1.20911 1.97189 -22.1163 -0.479632 60.2932 6.316 -8.35233 6.04983 -37.3001 -63.0925 -46.1615 10.8046 42.7535 -86.4071 -11.1618 20.3337 56.4908 13.9001 -33.9878 0.30426 61.7789 31.0614 51.8156 -1.08644 13.0949 96.3544 5.45801 16.9278 1.56125 42.812 -24.7098 -22.1678 -33.3202 14.0339 58.457 4.73847 3.18194 3.269 -19.9849 -2.06882 -6.49846 -17.6724 -17.4387 -2.011 8.88786 52.3478 -14.9234 6.65886 2.51941 1.03617 0.126858 -10.913 -9.21845 
29.6272 91.0793 -15.9888 5.47355 -3.36437 121.354 5.7699 11.3726 -19.4304 0.460375 1.11839 2.18159 -22.0356 -1.0373 60.1253 5.03498 -9.16157 7.20301 -30.8258 -54.4351 -45.9723 10.3899 37.5932 -68.724 -8.75349 20.8029 54.2476 13.4488 -34.0729 0.268312 60.0851 30.1405 50.5697 -2.05603 11.2941 97.367 5.35136 16.2075 1.35976 41.0688 -23.4421 -21.7855 -31.1717 14.5381 54.0959 8.05096 3.03682 3.00863 -18.1703 0.791015 -1.79617 -17.395 -18.4212 -1.7583 11.2618 52.7923 -17.0602 6.38521 2.53868 1.02476 1.20674 -7.10129 -10.9134 
28.9005 90.681 -16.965 5.85346 -3.55298 120.809 5.87209 11.9412 -20.0306 0.586472 1.09036 2.09833 -22.4448 -1.62663 59.8932 3.50172 -9.52473 8.13801 -26.3588 -46.2968 -49.0302 8.31422 34.3133 -47.099 -6.34724 21.2127 51.9751 12.9474 -33.7856 0.27049 58.8304 30.2289 49.85 -1.99667 11.0292 99.5932 5.22951 15.4885 1.15823 39.2274 -22.1935 -21.1812 -28.8883 14.8011 50.0646 11.0199 2.69097 2.81104 -38.2767 -13.9074 -7.00203 -17.2666 -19.303 -1.48309 13.5405 53.3363 -18.8712 6.47448 2.42431 1.09091 0.191598 -9.2459 -9.64788 
28.1871 90.376 -17.9521 6.02011 -3.49952 120.178 5.82183 12.5729 -20.6394 0.361515 0.761181 1.80472 -23.1321 -2.24315 59.5809 2.00532 -9.54339 8.35391 -24.0538 -40.3728 -55.1304 4.93884 31.7564 -23.3999 -3.94364 21.5598 49.6765 12.5676 -33.6531 0.368404 58.7335 30.4471 49.5019 -1.61728 10.4454 100.307 5.09519 14.7704 0.957025 37.6161 -21.1055 -20.1781 -26.7707 15.1625 46.5196 13.6998 2.47999 2.71983 -38.0372 -11.6761 -0.927549 -17.2795 -20.1751 -1.24194 15.5732 53.806 -20.3854 6.83344 2.2608 1.16587 0.176309 -8.93526 -9.89624 
27.5013 90.1543 -18.9571 6.07297 -3.31275 119.55 5.66236 13.0802 -20.906 0.28162 0.518129 1.68726 -23.6273 -2.62168 59.1022 1.31622 -9.3052 8.26173 -21.8363 -37.0337 -58.848 0.552407 26.1839 -4.31242 -1.54395 21.8406 47.3556 11.8355 -33.7595 0.479743 58.9413 30.8986 49.3477 -1.1752 10.033 100.304 4.95114 14.0527 0.756516 35.9886 -20.1533 -19.0698 -24.7357 15.3924 43.2776 16.1601 2.32035 2.49418 -42.6233 -14.3886 -1.29582 -17.3226 -21.1238 -0.946103 17.3473 54.3888 -21.608 7.40982 2.1064 1.2661 -0.295207 -9.89686 -9.72713 
26.8532 90.0245 -19.9489 6.12595 -2.64485 118.65 5.63743 13.2716 -20.9157 -0.115284 0.510806 1.67289 -23.878 -2.82932 58.4647 0.0825071 -8.85306 8.27987 -20.4403 -35.0546 -60.7263 -0.614373 17.5344 8.91337 0.849863 22.0512 45.016 11.7203 -34.0227 0.260879 60.2453 31.1504 49.0961 -0.248325 8.56372 99.9193 4.80011 13.335 0.557068 34.096 -19.0257 -17.8545 -22.8922 15.7126 40.5272 18.4389 2.47638 2.22434 -45.4133 -14.2291 1.13659 -17.6961 -21.8576 -0.74365 18.8004 54.873 -22.5819 8.01732 2.06761 1.37133 -0.387097 -9.93577 -10.0634 
26.2572 89.9021 -20.9345 6.47149 -1.99914 117.648 5.69179 13.4969 -20.7019 -0.223318 0.769154 1.72019 -23.8153 -2.736 57.63 -0.423053 -8.50386 7.78397 -23.1905 -35.7557 -62.7293 2.41422 12.1785 14.0622 3.23504 22.1873 42.6619 11.0291 -34.2489 0.426329 60.4096 31.8376 48.7528 0.000162584 8.64982 100.046 4.64486 12.617 0.359044 32.4026 -17.8689 -16.665 -21.0344 15.9831 38.2602 20.4983 3.58837 1.70032 -49.4513 -14.8843 2.20652 -17.9772 -22.2135 -0.761733 20.0013 55.1956 -23.306 8.5816 2.15632 1.52627 -0.502677 -10.0867 -10.5992 
25.7392 89.8496 -21.9095 7.15749 -1.66432 117.11 4.84186 14.0376 -20.0543 -0.408866 1.32719 2.02345 -23.794 -2.50625 56.6611 -1.07611 -8.06 7.47417 -28.5468 -37.1638 -63.0032 5.80797 8.66474 9.38902 5.60806 22.2448 40.2976 10.4121 -34.5058 0.754501 60.2665 32.684 48.2804 -0.17523 9.05405 100.013 4.48819 11.8983 0.162804 31.1641 -16.9497 -15.1312 -19.5666 16.633 36.718 22.6049 4.26227 1.59261 -53.073 -15.4724 3.72306 -17.7143 -22.202 -0.852008 20.7378 55.5156 -23.8767 9.03833 2.39555 1.62297 -0.347479 -9.77421 -11.459 
25.3375 89.8741 -22.8372 7.59444 -1.17623 116.26 4.52283 14.5132 -19.2367 -0.125742 1.43428 2.31116 -23.6754 -2.14988 55.5323 -1.68027 -8.11051 7.75156 -35.0342 -39.9145 -61.6719 6.68322 7.66722 -4.19841 7.96459 22.2191 37.9279 10.5651 -35.1067 0.519122 60.7566 32.6574 47.6829 -0.283823 8.50512 100.055 4.33289 11.1784 -0.0312917 29.9229 -16.1679 -13.3358 -18.9314 17.5481 35.5857 24.7614 4.28952 1.69647 -56.8094 -17.1349 4.47557 -17.654 -22.3559 -1.09959 20.9527 55.769 -24.2966 9.42691 2.73948 1.62527 -0.057164 -9.38006 -12.4385 
25.0284 89.9638 -23.7582 7.73799 -0.976112 115.421 3.6467 14.7295 -18.3046 0.396916 1.44224 2.53326 -23.3896 -1.79868 54.2574 -2.26855 -8.46291 7.92067 -42.2622 -44.3328 -59.5568 3.82694 11.0016 -22.4441 10.2995 22.1059 35.5578 10.2988 -35.6317 0.678418 60.513 33.4249 47.0988 -0.763343 8.9232 100.648 4.18177 10.457 -0.222885 29.2655 -15.7018 -11.6388 -18.8344 18.4277 34.6373 26.9682 4.13859 1.652 -60.2694 -19.0199 4.8283 -17.4117 -22.3246 -1.44885 19.4761 54.35 -24.7527 18.4471 3.15017 1.44123 -8.06036 -7.59629 -11.9491 
24.7932 90.0723 -24.6348 7.7249 -0.94567 114.384 3.00233 14.6994 -17.3735 0.880094 1.37995 2.58671 -23.0509 -1.47793 52.8613 -2.86552 -9.35293 8.13116 -50.3643 -50.9736 -57.6538 -0.502049 18.8787 -41.2928 12.607 21.9008 33.1926 9.76119 -35.9138 0.855637 59.7793 34.5208 46.2406 -1.3657 9.97426 101.946 4.03765 9.73366 -0.411621 28.707 -15.235 -10.0642 -18.6619 19.0283 34.0154 29.1261 3.93455 1.61767 -63.6817 -21.2891 4.82595 -17.21 -22.3054 -1.91406 18.3595 53.303 -24.7188 13.7998 3.17097 1.92889 -2.46792 -6.70031 -11.8709 
24.6607 90.2678 -25.5103 6.78946 -1.02331 113.406 2.8686 14.4913 -16.3282 1.7726 0.961568 2.62466 -22.884 -1.06362 51.3617 -3.19559 -10.4354 8.07909 -59.7054 -58.5666 -57.001 -4.41888 30.3567 -59.9109 14.8804 21.5993 30.8378 10.4475 -36.9032 0.62814 61.316 34.661 45.6033 -1.92382 8.05114 100.646 3.90338 9.00798 -0.597142 27.9628 -15.4819 -8.49727 -18.6016 19.3801 33.7396 31.2086 3.75074 1.62837 -66.9766 -23.751 4.59949 -17.1357 -23.0006 -2.15486 16.9753 52.5495 -24.2166 16.0517 3.47687 2.0077 -3.78215 -6.51752 -11.4618 
